<?xml version="1.0" encoding="utf-8"?>
<!-- Generator: Adobe Illustrator 23.0.5, SVG Export Plug-In . SVG Version: 6.00 Build 0)  -->
<svg version="1.1" id="레이어_1" xmlns="http://www.w3.org/2000/svg" xmlns:xlink="http://www.w3.org/1999/xlink" x="0px"
	 y="0px" viewBox="0 0 1920 721" style="enable-background:new 0 0 1920 721;" xml:space="preserve">
<style type="text/css">
	.st0{fill:#FFFFFF;}
</style>
<path class="st0" d="M1108.7,721h-251V284.9c0-16.5,13.4-29.9,29.9-29.9h191.3c16.5,0,29.9,13.4,29.9,29.9L1108.7,721L1108.7,721z"
	/>
<rect x="1006.2" y="540" class="st0" width="251" height="181"/>
<rect x="1162.2" y="367" class="st0" width="126" height="354"/>
<rect x="1284.2" y="438" class="st0" width="46" height="283"/>
<path class="st0" d="M1432.1,721h-110V108c0-30.4,24.6-55,55-55l0,0c30.4,0,55,24.6,55,55V721z"/>
<rect x="1337.8" y="540" class="st0" width="251" height="181"/>
<rect x="1533.8" y="310" class="st0" width="189" height="411"/>
<rect x="1719.8" y="438" class="st0" width="46" height="283"/>
<rect x="1742.6" y="653" class="st0" width="122" height="68"/>
<rect x="1843.6" y="161" class="st0" width="87" height="560"/>
<rect x="818.9" y="468" class="st0" width="54" height="253"/>
<rect x="708.9" y="525" class="st0" width="137" height="196"/>
<path class="st0" d="M-90.3,722.5h-251V286.4c0-16.5,13.4-29.9,29.9-29.9h191.3c16.5,0,29.9,13.4,29.9,29.9v436.1H-90.3z"/>
<rect x="-192.8" y="541.5" class="st0" width="251" height="181"/>
<rect x="-36.8" y="368.5" class="st0" width="126" height="354"/>
<rect x="85.2" y="439.5" class="st0" width="46" height="283"/>
<path class="st0" d="M233.1,722.5h-110v-613c0-30.4,24.6-55,55-55l0,0c30.4,0,55,24.6,55,55V722.5z"/>
<rect x="138.8" y="541.5" class="st0" width="251" height="181"/>
<rect x="334.8" y="311.5" class="st0" width="189" height="411"/>
<rect x="520.8" y="439.5" class="st0" width="46" height="283"/>
<rect x="543.6" y="654.5" class="st0" width="122" height="68"/>
<rect x="644.6" y="162.5" class="st0" width="87" height="560"/>
<rect x="-380.1" y="469.5" class="st0" width="54" height="253"/>
<rect x="-490.1" y="526.5" class="st0" width="137" height="196"/>
</svg>
