<?xml version="1.0" encoding="utf-8"?>
<!-- Generator: Adobe Illustrator 23.0.5, SVG Export Plug-In . SVG Version: 6.00 Build 0)  -->
<svg version="1.1" id="레이어_1" xmlns="http://www.w3.org/2000/svg" xmlns:xlink="http://www.w3.org/1999/xlink" x="0px"
	 y="0px" viewBox="0 0 1184 490" style="enable-background:new 0 0 1184 490;" xml:space="preserve">
<style type="text/css">
	.st0{fill:#E5E5E5;stroke:#000000;stroke-width:10;stroke-linecap:round;stroke-miterlimit:10;}
	.st1{display:none;}
	.st2{display:inline;fill:#606060;}
	.st3{display:inline;fill:none;stroke:#000000;stroke-width:10;stroke-miterlimit:10;stroke-dasharray:30.0209,15.0104;}
</style>
<g>
	<path class="st0" d="M52.5,219c0,0,3-37,177-51c0,0,193-89,204-96s84-16,121-20c0,0,351-18,482,11c0,0,15,12,0,24c0,0,58,39,85,77
		c0,0,15,72,16,111c0,0,3,26,11,36c0,0,3,39-11,54c0,0-37,17-86,25l-7,15l-18-7l-62-90l-85,16l-25,45l-549,16l-89-63l-57,55l-23,11
		c0,0-27,7-65,0c0,0-40-25-36-31v-14v-64l11-30C46.5,249,49.5,225,52.5,219z"/>
	<g class="st1">
		<circle class="st2" cx="218.5" cy="357" r="86"/>
		<circle class="st3" cx="218.5" cy="357" r="86"/>
	</g>
	<g class="st1">
		<circle class="st2" cx="938" cy="357.5" r="86"/>
		<circle class="st3" cx="938" cy="357.5" r="86"/>
	</g>
</g>
</svg>
